<?xml version="1.0" standalone="no"?>
<!DOCTYPE svg PUBLIC "-//W3C//DTD SVG 20010904//EN"
 "http://www.w3.org/TR/2001/REC-SVG-20010904/DTD/svg10.dtd">
<svg version="1.0" xmlns="http://www.w3.org/2000/svg"
 width="500.000000pt" height="500.000000pt" viewBox="0 0 500.000000 500.000000"
 preserveAspectRatio="xMidYMid meet">
<metadata>
Created by potrace 1.14, written by Peter Selinger 2001-2017
</metadata>
<g transform="translate(0.000000,500.000000) scale(0.100000,-0.100000)"
fill="#000000" stroke="none">
<path d="M3294 4676 c-12 -6 -28 -17 -35 -22 -8 -6 -59 -35 -114 -64 -55 -29
-102 -56 -105 -59 -3 -3 -34 -21 -70 -39 -36 -17 -83 -42 -105 -55 -22 -13
-96 -54 -165 -91 -126 -70 -228 -126 -387 -215 -49 -27 -113 -62 -143 -78
-186 -101 -653 -360 -693 -384 -27 -16 -50 -29 -53 -29 -3 0 -41 -20 -85 -46
-44 -25 -115 -64 -157 -86 -42 -23 -79 -44 -82 -47 -3 -3 -34 -21 -70 -40 -36
-18 -109 -58 -162 -88 l-98 -54 0 -465 0 -465 53 29 c69 39 139 78 207 115 30
16 95 52 144 79 49 28 119 66 155 86 36 19 80 43 96 52 17 9 57 32 90 50 33
18 79 44 102 57 23 13 43 20 45 16 3 -4 5 -44 6 -88 1 -44 11 -125 22 -181 20
-100 103 -364 145 -459 12 -27 30 -70 40 -95 32 -80 68 -161 165 -370 37 -80
83 -179 103 -220 40 -86 54 -118 131 -292 31 -70 56 -130 56 -134 0 -3 11 -30
25 -60 66 -144 165 -456 189 -596 7 -38 14 -45 32 -29 8 8 89 52 214 117 30
16 57 32 60 35 3 3 46 27 95 54 142 74 261 139 276 150 8 6 36 21 62 35 l48
25 -6 50 c-12 94 -69 321 -86 340 -5 5 -9 15 -9 23 0 26 -151 392 -247 602
-52 113 -131 284 -175 380 -44 96 -91 200 -105 230 -14 30 -42 98 -63 150 -20
52 -41 104 -45 115 -5 11 -9 22 -9 25 -1 3 -4 10 -8 15 -3 6 -25 69 -48 140
-39 124 -45 141 -54 183 -2 9 -9 37 -16 61 -6 24 -12 87 -13 138 l-2 95 45 25
c25 14 80 45 122 69 42 24 80 44 83 44 3 0 22 10 43 23 20 13 66 39 102 59 36
19 137 75 225 123 88 49 183 101 210 116 l50 27 3 466 c1 256 -1 466 -5 465
-5 -1 -18 -6 -29 -13z"/>
<path d="M3446 4230 c0 -388 2 -463 15 -474 7 -8 43 -29 79 -49 62 -33 87 -46
205 -112 28 -15 100 -55 160 -88 61 -33 115 -63 120 -67 6 -4 42 -24 80 -44
39 -20 78 -42 87 -49 9 -6 20 -8 23 -5 5 5 10 794 6 904 -1 21 -7 24 -161 107
-41 22 -100 54 -130 72 -30 18 -85 48 -121 68 -36 19 -107 58 -156 86 -50 28
-95 51 -101 51 -6 0 -12 4 -14 8 -2 6 -82 52 -91 52 -1 0 -2 -207 -1 -460z"/>
<path d="M3189 3551 c-107 -59 -214 -119 -239 -133 -25 -13 -101 -55 -170 -93
-178 -97 -168 -87 -107 -119 29 -16 185 -102 347 -191 407 -224 367 -206 404
-185 17 10 119 66 226 125 107 60 209 116 225 125 17 9 71 39 120 65 143 77
147 79 147 90 1 6 -17 19 -38 31 -21 12 -64 35 -94 51 -147 82 -342 189 -405
223 -38 21 -97 53 -130 72 -33 19 -67 37 -76 40 -10 4 -88 -33 -210 -101z"/>
<path d="M2570 3102 c0 -44 73 -292 125 -427 65 -164 344 -798 359 -812 5 -5
129 300 172 422 63 181 94 308 98 399 1 27 -7 33 -84 76 -47 26 -101 56 -120
67 -19 11 -64 35 -100 53 -36 19 -76 42 -90 51 -14 9 -61 36 -105 59 -94 49
-149 80 -210 116 l-45 26 0 -30z"/>
<path d="M1499 2619 c-29 -17 -88 -49 -129 -72 -41 -22 -93 -51 -115 -63 -22
-12 -71 -39 -110 -59 -38 -21 -74 -41 -80 -45 -5 -5 -39 -24 -75 -43 -157 -84
-160 -87 -103 -115 56 -27 236 -124 248 -132 6 -4 39 -23 75 -42 156 -84 186
-100 195 -107 6 -5 54 -31 108 -60 l98 -52 32 18 c18 10 34 20 37 23 3 3 26
15 53 27 26 13 47 27 47 33 0 6 -20 59 -44 118 -69 167 -137 376 -160 494
l-22 107 -55 -30z"/>
<path d="M1930 1560 c0 -5 -11 -33 -24 -62 -129 -278 -247 -661 -237 -765 0
-7 27 -26 59 -43 31 -16 68 -36 82 -44 57 -34 280 -156 286 -156 3 0 19 -9 35
-21 16 -11 29 -17 29 -12 0 4 4 3 8 -3 4 -6 32 -24 62 -39 30 -16 86 -47 123
-68 37 -22 70 -37 73 -34 17 17 -66 291 -156 517 -59 148 -167 397 -238 550
-21 47 -49 109 -62 138 -21 47 -40 67 -40 42z"/>
</g>
</svg>
